<?xml version="1.0" encoding="iso-8859-1"?>
<!-- Generator: Adobe Illustrator 19.0.0, SVG Export Plug-In . SVG Version: 6.00 Build 0)  -->
<svg version="1.1" id="Layer_1" xmlns="http://www.w3.org/2000/svg" xmlns:xlink="http://www.w3.org/1999/xlink" x="0px" y="0px"
	 viewBox="0 0 512 512" style="enable-background:new 0 0 512 512;" xml:space="preserve">
<path style="fill:#C8F4DE;" d="M500.845,256c0,135.225-178.475,244.845-244.845,244.845S11.155,391.225,11.155,256
	S120.775,11.155,256,11.155S500.845,120.775,500.845,256z"/>
<g>
	<path style="fill:#87DFD6;" d="M424.283,301.564c30.278-30.278,35.703-75.977,16.314-111.805
		c-35.828-19.388-81.526-13.963-111.804,16.314c-30.278,30.278-35.703,75.977-16.314,111.805
		C348.306,337.266,394.006,331.842,424.283,301.564z"/>
	<path style="fill:#87DFD6;" d="M87.717,301.564c-30.278-30.278-35.703-75.977-16.314-111.805
		c35.828-19.388,81.526-13.963,111.805,16.314s35.703,75.977,16.314,111.805C163.694,337.266,117.994,331.842,87.717,301.564z"/>
	<circle style="fill:#87DFD6;" cx="256" cy="122.2" r="45.12"/>
</g>
<path style="fill:#4A7DBA;" d="M279.983,379.259h-66.928H179.59c0,43.124,34.959,78.083,78.083,78.083s78.083-34.959,78.083-78.083
	H279.983z"/>
<path d="M437.019,74.981C388.668,26.628,324.38,0,256,0S123.332,26.628,74.981,74.981C26.628,123.333,0,187.62,0,256
	c0,84.112,63.61,149.935,101.528,181.684C153.782,481.441,217.304,512,256,512s102.218-30.559,154.472-74.316
	C448.39,405.935,512,340.112,512,256C512,187.62,485.372,123.333,437.019,74.981z M396.151,420.58
	C342.541,465.468,283.93,489.691,256,489.691s-86.541-24.222-140.151-69.111c-34.934-29.252-93.54-89.532-93.54-164.58
	C22.309,127.142,127.142,22.309,256,22.309S489.691,127.142,489.691,256C489.691,331.048,431.085,391.328,396.151,420.58z"/>
<path d="M450.407,184.451c-1.032-1.905-2.596-3.47-4.501-4.501c-19.611-10.613-42.638-14.77-64.817-11.708
	c-22.951,3.168-43.761,13.522-60.184,29.944c-16.422,16.422-26.777,37.233-29.945,60.184c-3.062,22.189,1.095,45.208,11.708,64.818
	c1.032,1.905,2.596,3.47,4.501,4.501c15.405,8.336,32.91,12.688,50.465,12.688c4.794,0,9.594-0.325,14.352-0.982
	c22.951-3.168,43.761-13.523,60.184-29.945c16.422-16.422,26.777-37.233,29.945-60.184
	C465.177,227.079,461.02,204.06,450.407,184.451z M416.395,293.676c-25.096,25.096-63.971,31.423-95.636,15.922
	c-15.503-31.667-9.174-70.542,15.921-95.637c25.096-25.096,63.97-31.424,95.636-15.921
	C447.82,229.706,441.49,268.581,416.395,293.676z"/>
<path d="M209.331,323.187c10.613-19.61,14.77-42.629,11.708-64.818c-3.168-22.95-13.523-43.761-29.945-60.184
	c-16.423-16.422-37.233-26.777-60.184-29.944c-22.187-3.063-45.207,1.095-64.817,11.708c-1.905,1.032-3.469,2.596-4.501,4.501
	c-10.613,19.61-14.77,42.629-11.708,64.818c3.168,22.95,13.523,43.761,29.945,60.184c16.423,16.422,37.233,26.777,60.184,29.945
	c4.761,0.657,9.556,0.982,14.352,0.982c17.554,0,35.063-4.354,50.465-12.688C206.735,326.657,208.299,325.093,209.331,323.187z
	 M191.24,309.598c-31.666,15.502-70.541,9.174-95.636-15.922s-31.425-63.97-15.921-95.637c31.666-15.502,70.541-9.174,95.636,15.921
	C200.414,239.056,206.744,277.931,191.24,309.598z"/>
<path d="M251.594,369.99c-0.602-0.402-1.249-0.747-1.93-1.026c-0.669-0.279-1.371-0.502-2.085-0.636
	c-3.625-0.736-7.474,0.457-10.063,3.045c-0.513,0.513-0.982,1.082-1.383,1.695c-0.413,0.602-0.747,1.249-1.026,1.919
	c-0.279,0.68-0.502,1.383-0.635,2.097c-0.146,0.714-0.223,1.45-0.223,2.175c0,0.725,0.077,1.461,0.223,2.175
	c0.133,0.714,0.356,1.417,0.635,2.097c0.279,0.669,0.614,1.316,1.026,1.919c0.402,0.613,0.87,1.182,1.383,1.695
	c2.075,2.075,4.953,3.268,7.886,3.268c0.724,0,1.461-0.078,2.175-0.223c0.714-0.134,1.417-0.357,2.085-0.636
	c0.68-0.279,1.327-0.625,1.93-1.026c0.614-0.402,1.182-0.87,1.696-1.383c2.075-2.075,3.269-4.953,3.269-7.886
	s-1.194-5.812-3.269-7.886C252.775,370.86,252.207,370.391,251.594,369.99z"/>
<path d="M334.641,368.105h-55.773c-6.16,0-11.155,4.994-11.155,11.155s4.995,11.155,11.155,11.155h43.69
	c-5.326,31.613-32.894,55.773-65.999,55.773s-60.673-24.16-65.999-55.773h21.38c6.16,0,11.155-4.994,11.155-11.155
	s-4.995-11.155-11.155-11.155h-33.464c-6.16,0-11.155,4.994-11.155,11.155c0,49.206,40.032,89.237,89.237,89.237
	s89.237-40.032,89.237-89.237C345.795,373.099,340.8,368.105,334.641,368.105z"/>
<path d="M256,178.475c31.029,0,56.273-25.244,56.273-56.274c0-31.029-25.244-56.273-56.273-56.273s-56.273,25.244-56.273,56.273
	C199.727,153.231,224.971,178.475,256,178.475z M256,88.237c18.728,0,33.964,15.236,33.964,33.964
	c0,18.729-15.236,33.965-33.964,33.965s-33.964-15.236-33.964-33.965C222.036,103.473,237.272,88.237,256,88.237z"/>
<g>
</g>
<g>
</g>
<g>
</g>
<g>
</g>
<g>
</g>
<g>
</g>
<g>
</g>
<g>
</g>
<g>
</g>
<g>
</g>
<g>
</g>
<g>
</g>
<g>
</g>
<g>
</g>
<g>
</g>
</svg>
